# xmcd CD database file
#
# Track frame offsets:
#	150
#	24637
#	47872
#	69512
#	85672
#	104190
#	124735
#	144270
#	168540
#	188365
#	202295
#
# Disc length: 3063 seconds
#
# Revision: 0
# Processed by: cddbd v1.5.1PL0 Copyright (c) Steve Scherf et al.
# Submitted via: CDex 1.51
#
DISCID=9d0bf50b
DTITLE=Various Artist - Smoking Jazz,
DYEAR=1900
DGENRE=Jazz
TTITLE0=Smoke Rings
TTITLE1=Come Back To Me
TTITLE2=Moonlight In Vermont
TTITLE3=You Turn The Tables On Me
TTITLE4=Hit The Road To Dreamland
TTITLE5=Where You Want To Be
TTITLE6=Just A Little Lovin
TTITLE7=Tribeca
TTITLE8=Tenderly
TTITLE9=More Than You Know
TTITLE10=Night Song
EXTD=
EXTT0=
EXTT1=
EXTT2=
EXTT3=
EXTT4=
EXTT5=
EXTT6=
EXTT7=
EXTT8=
EXTT9=
EXTT10=
PLAYORDER=
